<svg viewBox="0 0 171 177.2" xmlns="http://www.w3.org/2000/svg"><g fill="#232227"><path d="m24.2 85.9c0-5.4-.9-7.9-4.2-12.1-3.9-5.1-13-15.3-16.5-20.7-2.7-4.2-3.5-8.2-3.5-15.2v-18c0-13.5 6.3-19.9 19-19.9s17.9 6.6 17.9 19.9v21.9h-12.3v-21.8c0-3.9-1.6-6.4-5.6-6.4s-5.6 2-5.6 6.3v17.8c0 3.4.4 5.7 2.3 8.2 2.9 4.1 12.2 14.2 16.6 20.7 3.7 5.5 5 9.8 5 19.1v17.2c0 12.9-5.4 19.9-18.6 19.9s-18.7-7-18.7-19.8v-25.6h12.7v25.6c0 3.9 1.7 6.4 5.7 6.4s5.7-2.2 5.7-6.4v-17.1z"/><path d="m46.4 121.5v-120.2h13.2v120.2z"/><path d="m113.1 121.5v-35c0-15.8 0-31.3.6-47-2.7 19.7-5.3 39.6-10.6 82.1h-11.5l-10.3-82.1c.4 15.8.6 31.3.6 47v35h-12.2v-120.2h17.6c5.7 54.3 8 71.7 9.9 88.8 1.9-16.8 4.3-34.8 10-88.8h18v120.2h-12.2z"/><path d="m157.8 85.9c0-5.4-.9-7.9-4.2-12.1-3.9-5.1-13-15.3-16.5-20.7-2.7-4.2-3.6-8.2-3.6-15.2v-18c-0-13.4 6.3-19.9 19-19.9s17.9 6.6 17.9 19.9v21.9h-12.3v-21.8c0-3.9-1.6-6.4-5.6-6.4s-5.6 2-5.6 6.3v17.8c0 3.4.4 5.7 2.3 8.2 2.9 4.1 12.2 14.2 16.6 20.7 3.7 5.5 5 9.8 5 19.1v17.2c0 12.9-5.4 19.9-18.6 19.9s-18.8-7-18.8-19.9v-25.6h12.7v25.6c0 3.9 1.7 6.4 5.7 6.4s5.7-2.2 5.7-6.4v-17.1h.3z"/><path d="m13.9 163.3h-3.5l-6.9-12v12h-3.3v-16.9h3.7l6.7 11.8v-11.8h3.3s0 16.9 0 16.9z"/><path d="m28.9 155.9h-8.2v4.3h9.3v3h-12.8v-16.9h12.4v3h-8.9v3.6h8.2v2.9z"/><path d="m49.2 146.4h3.6l-4.7 16.9h-3.4l-2-9.9-.6-3.3-.6 3.3-2 9.9h-3.3l-4.8-16.9h3.7l2.2 9.7.5 2.7.5-2.6 1.9-9.7h3.7l2 9.7.5 2.7.5-2.6 2.3-9.8z"/><path d="m73.4 163.3h-13.1v-3l8.7-10.9h-8.5v-3h12.9v2.8l-8.8 11.1h8.8z"/><path d="m87.5 155.9h-8.2v4.3h9.3v3h-12.8v-16.9h12.4v3h-8.9v3.6h8.2v2.9z"/><path d="m101.3 159.8h-6.2l-1.2 3.5h-3.7l6-16.9h4l6 16.9h-3.8s-1.1-3.5-1.1-3.5zm-1-2.9-2.1-6.6-2.2 6.6s4.3 0 4.3 0z"/><path d="m108.3 146.4h3.5v13.9h8.4v3h-11.9z"/><path d="m132.5 159.8h-6.2l-1.2 3.5h-3.7l6-16.9h4l6 16.9h-3.8zm-1-2.9-2.1-6.6-2.2 6.6z"/><path d="m153.2 163.3h-3.5l-6.9-12v12h-3.3v-16.9h3.7l6.7 11.8v-11.8h3.3z"/><path d="m163.8 163.3h-7.3v-16.9h7.3c1 0 1.9.1 2.6.4 1.2.4 2.1 1.1 2.9 2.1.6.8 1 1.7 1.2 2.7s.3 1.9.3 2.8c0 2.2-.5 4.1-1.4 5.7-1.2 2.1-3.1 3.2-5.7 3.2zm2.6-12.6c-.5-.9-1.6-1.4-3.2-1.4h-3.2v11h3.2c1.7 0 2.8-.8 3.5-2.5.4-.9.5-2 .5-3.2s-.3-3-.8-4z"/><path d="m163.6 136.1c-1.4 1.5-2.3 2.4-4.2 2.4s-2.8-.9-4.2-2.4c-1.5-1.6-3.5-3.6-7.2-3.6s-5.6 2-7.2 3.6c-1.4 1.5-2.3 2.4-4.2 2.4s-2.8-.9-4.2-2.4c-1.5-1.6-3.5-3.6-7.2-3.6s-5.6 2-7.2 3.6c-1.4 1.5-2.3 2.4-4.2 2.4s-2.8-.9-4.2-2.4c-1.5-1.6-3.5-3.6-7.2-3.6s-5.6 2-7.2 3.6c-1.4 1.5-2.3 2.4-4.2 2.4s-2.8-.9-4.2-2.4c-1.5-1.6-3.5-3.6-7.2-3.6s-5.6 2-7.2 3.6c-1.4 1.5-2.3 2.4-4.2 2.4s-2.8-.9-4.2-2.4c-1.5-1.6-3.5-3.6-7.2-3.6s-5.6 2-7.2 3.6c-1.4 1.5-2.3 2.4-4.2 2.4s-2.8-.9-4.2-2.4c-1.5-1.6-3.5-3.6-7.2-3.6s-5.6 2-7.2 3.6c-1.4 1.5-2.3 2.4-4.2 2.4s-2.8-.9-4.2-2.4c-1.5-1.6-3.5-3.6-7.2-3.6s-5.6 2-7.2 3.6c-1.4 1.4-2.3 2.3-4 2.4v4c3.6 0 5.4-2 6.9-3.6 1.4-1.5 2.3-2.4 4.2-2.4s2.8.9 4.2 2.4c1.5 1.6 3.5 3.6 7.2 3.6s5.6-2 7.2-3.6c1.4-1.5 2.3-2.4 4.2-2.4s2.8.9 4.2 2.4c1.5 1.6 3.5 3.6 7.2 3.6s5.6-2 7.2-3.6c1.4-1.5 2.3-2.4 4.2-2.4s2.8.9 4.2 2.4c1.5 1.6 3.5 3.6 7.2 3.6s5.6-2 7.2-3.6c1.4-1.5 2.3-2.4 4.2-2.4s2.8.9 4.2 2.4c1.5 1.6 3.5 3.6 7.2 3.6s5.6-2 7.2-3.6c1.4-1.5 2.3-2.4 4.2-2.4s2.8.9 4.2 2.4c1.5 1.6 3.5 3.6 7.2 3.6s5.6-2 7.2-3.6c1.4-1.5 2.3-2.4 4.2-2.4s2.8.9 4.2 2.4c1.5 1.6 3.5 3.6 7.2 3.6s5.6-2 7.2-3.6c1.4-1.5 2.3-2.4 4.2-2.4s2.8.9 4.2 2.4c1.5 1.6 3.5 3.6 7.2 3.6s5.6-2 7.2-3.6c1.4-1.5 2.3-2.4 4.2-2.4v-4c-3.7 0-5.6 2-7.2 3.6z"/><path d="m163.6 170.8c-1.4 1.5-2.3 2.4-4.2 2.4s-2.8-.9-4.2-2.4c-1.5-1.6-3.5-3.6-7.2-3.6s-5.6 2-7.2 3.6c-1.4 1.5-2.3 2.4-4.2 2.4s-2.8-.9-4.2-2.4c-1.5-1.6-3.5-3.6-7.2-3.6s-5.6 2-7.2 3.6c-1.4 1.5-2.3 2.4-4.2 2.4s-2.8-.9-4.2-2.4c-1.5-1.6-3.5-3.6-7.2-3.6s-5.6 2-7.2 3.6c-1.4 1.5-2.3 2.4-4.2 2.4s-2.8-.9-4.2-2.4c-1.5-1.6-3.5-3.6-7.2-3.6s-5.6 2-7.2 3.6c-1.4 1.5-2.3 2.4-4.2 2.4s-2.8-.9-4.2-2.4c-1.5-1.6-3.5-3.6-7.2-3.6s-5.6 2-7.2 3.6c-1.4 1.5-2.3 2.4-4.2 2.4s-2.8-.9-4.2-2.4c-1.5-1.6-3.5-3.6-7.2-3.6s-5.6 2-7.2 3.6c-1.4 1.5-2.3 2.4-4.2 2.4s-2.8-.9-4.2-2.4c-1.5-1.6-3.5-3.6-7.2-3.6s-5.6 2-7.2 3.6c-1.4 1.4-2.3 2.3-4 2.4v4c3.6 0 5.4-2 6.9-3.6 1.4-1.5 2.3-2.4 4.2-2.4s2.8.9 4.2 2.4c1.5 1.6 3.5 3.6 7.2 3.6s5.6-2 7.2-3.6c1.4-1.5 2.3-2.4 4.2-2.4s2.8.9 4.2 2.4c1.5 1.6 3.5 3.6 7.2 3.6s5.6-2 7.2-3.6c1.4-1.5 2.3-2.4 4.2-2.4s2.8.9 4.2 2.4c1.5 1.6 3.5 3.6 7.2 3.6s5.6-2 7.2-3.6c1.4-1.5 2.3-2.4 4.2-2.4s2.8.9 4.2 2.4c1.5 1.6 3.5 3.6 7.2 3.6s5.6-2 7.2-3.6c1.4-1.5 2.3-2.4 4.2-2.4s2.8.9 4.2 2.4c1.5 1.6 3.5 3.6 7.2 3.6s5.6-2 7.2-3.6c1.4-1.5 2.3-2.4 4.2-2.4s2.8.9 4.2 2.4c1.5 1.6 3.5 3.6 7.2 3.6s5.6-2 7.2-3.6c1.4-1.5 2.3-2.4 4.2-2.4s2.8.9 4.2 2.4c1.5 1.6 3.5 3.6 7.2 3.6s5.6-2 7.2-3.6c1.4-1.5 2.3-2.4 4.2-2.4v-4c-3.7 0-5.6 2-7.2 3.6z"/></g></svg>