<svg viewBox="0 0 198.2 198.2" xmlns="http://www.w3.org/2000/svg"><path d="m0 0h198.2v198.2h-198.2z" fill="#232227"/><g fill="#fff"><path d="m38.1 97.5c0-5.3-.8-7.8-4.1-11.9-3.8-5-12.8-15.1-16.2-20.4-2.7-4.2-3.5-8.1-3.5-15v-17.7c0-13.2 6.2-19.6 18.8-19.6s17.6 6.5 17.6 19.6v21.6h-12.1v-21.4c0-3.9-1.6-6.3-5.5-6.3s-5.5 2-5.5 6.2v17.6c0 3.3.4 5.6 2.3 8.1 2.8 4 12 14 16.4 20.4 3.7 5.5 4.9 9.6 4.9 18.8v17c0 12.7-5.4 19.6-18.3 19.6s-18.5-6.9-18.5-19.6v-25.2h12.6v25.2c0 3.9 1.7 6.3 5.6 6.3s5.6-2.2 5.6-6.3v-16.8z"/><path d="m59.9 132.6v-118.4h13v118.4z"/><path d="m125.7 132.6v-34.5c0-15.5.1-30.8.6-46.3-2.7 19.4-5.2 39-10.4 80.9h-11.3l-10.2-80.9c.4 15.5.6 30.8.6 46.3v34.5h-12v-118.4h17.4c5.6 53.5 7.9 70.6 9.7 87.5 1.8-16.5 4.2-34.2 9.9-87.5h17.8v118.4h-12z"/><path d="m169.7 97.5c0-5.3-.8-7.8-4.1-11.9-3.8-5-12.8-15.1-16.2-20.4-2.7-4.2-3.5-8.1-3.5-15v-17.7c0-13.2 6.2-19.6 18.8-19.6s17.6 6.5 17.6 19.6v21.6h-12.1v-21.4c0-3.9-1.6-6.3-5.5-6.3s-5.5 2-5.5 6.2v17.6c0 3.3.4 5.6 2.3 8.1 2.8 4 12 14 16.4 20.4 3.7 5.5 4.9 9.6 4.9 18.8v17c0 12.7-5.4 19.6-18.3 19.6s-18.5-6.9-18.5-19.6v-25.2h12.6v25.2c0 3.9 1.7 6.3 5.6 6.3s5.6-2.2 5.6-6.3v-16.8z"/><path d="m27.9 173.7h-3.5l-6.8-11.8v11.8h-3.2v-16.6h3.6l6.6 11.6v-11.6h3.2v16.6z"/><path d="m42.7 166.5h-8.1v4.3h9.2v3h-12.6v-16.6h12.2v2.9h-8.8v3.5h8.1z"/><path d="m62.7 157.1h3.5l-4.7 16.6h-3.3l-2-9.7-.6-3.2-.6 3.2-2 9.7h-3.2l-4.7-16.6h3.7l2.2 9.5.5 2.7.5-2.6 1.9-9.6h3.7l2 9.5.5 2.7.5-2.6 2.2-9.6z"/><path d="m86.5 173.7h-12.9v-2.9l8.6-10.8h-8.4v-2.9h12.7v2.8l-8.7 10.9h8.7z"/><path d="m100.5 166.5h-8.1v4.3h9.2v3h-12.6v-16.6h12.2v2.9h-8.8v3.5h8.1z"/><path d="m114 170.3h-6.1l-1.1 3.4h-3.6l5.9-16.6h3.9l5.9 16.6h-3.8zm-1-2.9-2.1-6.5-2.1 6.5z"/><path d="m121 157.1h3.5v13.6h8.2v3h-11.7z"/><path d="m144.8 170.3h-6.1l-1.1 3.4h-3.6l5.9-16.6h3.9l5.9 16.6h-3.8zm-1-2.9-2.1-6.5-2.1 6.5z"/><path d="m165.2 173.7h-3.5l-6.8-11.8v11.8h-3.2v-16.6h3.6l6.6 11.6v-11.6h3.2v16.6z"/><path d="m175.6 173.7h-7.2v-16.6h7.2c1 0 1.9.1 2.6.4 1.2.4 2.1 1.1 2.8 2.1.6.8 1 1.7 1.2 2.7s.3 1.9.3 2.8c0 2.2-.4 4.1-1.3 5.6-1.2 2.1-3.1 3.1-5.6 3.1zm2.5-12.4c-.5-.9-1.6-1.4-3.2-1.4h-3.2v10.9h3.2c1.6 0 2.8-.8 3.4-2.4.4-.9.5-1.9.5-3.2s-.3-3-.8-3.9z"/><path d="m175.4 146.9c-1.4 1.5-2.3 2.3-4.2 2.3s-2.7-.8-4.2-2.3c-1.5-1.6-3.4-3.6-7.1-3.6s-5.6 2-7.1 3.6c-1.4 1.5-2.3 2.3-4.2 2.3s-2.7-.8-4.2-2.3c-1.5-1.6-3.4-3.6-7.1-3.6s-5.6 2-7.1 3.6c-1.4 1.5-2.3 2.3-4.2 2.3s-2.7-.8-4.2-2.3c-1.5-1.6-3.4-3.6-7.1-3.6s-5.6 2-7.1 3.6c-1.4 1.5-2.3 2.3-4.2 2.3s-2.7-.8-4.2-2.3c-1.5-1.6-3.4-3.6-7.1-3.6s-5.6 2-7.1 3.6c-1.4 1.5-2.3 2.3-4.2 2.3s-2.7-.8-4.2-2.3c-1.5-1.6-3.4-3.6-7.1-3.6s-5.6 2-7.1 3.6c-1.4 1.5-2.3 2.3-4.2 2.3s-2.7-.8-4.2-2.3c-1.5-1.6-3.4-3.6-7.1-3.6s-5.6 2-7.1 3.6c-1.4 1.5-2.3 2.3-4.2 2.3s-2.7-.8-4.2-2.3c-1.5-1.6-3.4-3.6-7.1-3.6s-5.6 2-7.1 3.6c-1.3 1.4-2.2 2.2-3.9 2.3v3.9c3.5 0 5.3-2 6.8-3.6 1.4-1.5 2.3-2.3 4.2-2.3s2.7.8 4.2 2.3c1.5 1.6 3.4 3.6 7.1 3.6s5.6-2 7.1-3.6c1.4-1.5 2.3-2.3 4.2-2.3s2.7.8 4.2 2.3c1.5 1.6 3.4 3.6 7.1 3.6s5.6-2 7.1-3.6c1.4-1.5 2.3-2.3 4.2-2.3s2.7.8 4.2 2.3c1.5 1.6 3.4 3.6 7.1 3.6s5.6-2 7.1-3.6c1.4-1.5 2.3-2.3 4.2-2.3s2.7.8 4.2 2.3c1.5 1.6 3.4 3.6 7.1 3.6s5.6-2 7.1-3.6c1.4-1.5 2.3-2.3 4.2-2.3s2.7.8 4.2 2.3c1.5 1.6 3.4 3.6 7.1 3.6s5.6-2 7.1-3.6c1.4-1.5 2.3-2.3 4.2-2.3s2.7.8 4.2 2.3c1.5 1.6 3.4 3.6 7.1 3.6s5.6-2 7.1-3.6c1.4-1.5 2.3-2.3 4.2-2.3s2.7.8 4.2 2.3c1.5 1.6 3.4 3.6 7.1 3.6s5.6-2 7.1-3.6c1.4-1.5 2.3-2.3 4.2-2.3v-3.9c-3.7 0-5.6 2-7.1 3.6z"/><path d="m175.4 181.2c-1.4 1.5-2.3 2.3-4.2 2.3s-2.7-.8-4.2-2.3c-1.5-1.6-3.4-3.6-7.1-3.6s-5.6 2-7.1 3.6c-1.4 1.5-2.3 2.3-4.2 2.3s-2.7-.8-4.2-2.3c-1.5-1.6-3.4-3.6-7.1-3.6s-5.6 2-7.1 3.6c-1.4 1.5-2.3 2.3-4.2 2.3s-2.7-.8-4.2-2.3c-1.5-1.6-3.4-3.6-7.1-3.6s-5.6 2-7.1 3.6c-1.4 1.5-2.3 2.3-4.2 2.3s-2.7-.8-4.2-2.3c-1.5-1.6-3.4-3.6-7.1-3.6s-5.6 2-7.1 3.6c-1.4 1.5-2.3 2.3-4.2 2.3s-2.7-.8-4.2-2.3c-1.5-1.6-3.4-3.6-7.1-3.6s-5.6 2-7.1 3.6c-1.4 1.5-2.3 2.3-4.2 2.3s-2.7-.8-4.2-2.3c-1.5-1.6-3.4-3.6-7.1-3.6s-5.6 2-7.1 3.6c-1.4 1.5-2.3 2.3-4.2 2.3s-2.7-.8-4.2-2.3c-1.5-1.6-3.4-3.6-7.1-3.6s-5.6 2-7.1 3.6c-1.3 1.4-2.2 2.2-3.9 2.3v3.9c3.5 0 5.3-2 6.8-3.6 1.4-1.5 2.3-2.3 4.2-2.3s2.7.8 4.2 2.3c1.5 1.6 3.4 3.6 7.1 3.6s5.6-2 7.1-3.6c1.4-1.5 2.3-2.3 4.2-2.3s2.7.8 4.2 2.3c1.5 1.6 3.4 3.6 7.1 3.6s5.6-2 7.1-3.6c1.4-1.5 2.3-2.3 4.2-2.3s2.7.8 4.2 2.3c1.5 1.6 3.4 3.6 7.1 3.6s5.6-2 7.1-3.6c1.4-1.5 2.3-2.3 4.2-2.3s2.7.8 4.2 2.3c1.5 1.6 3.4 3.6 7.1 3.6s5.6-2 7.1-3.6c1.4-1.5 2.3-2.3 4.2-2.3s2.7.8 4.2 2.3c1.5 1.6 3.4 3.6 7.1 3.6s5.6-2 7.1-3.6c1.4-1.5 2.3-2.3 4.2-2.3s2.7.8 4.2 2.3c1.5 1.6 3.4 3.6 7.1 3.6s5.6-2 7.1-3.6c1.4-1.5 2.3-2.3 4.2-2.3s2.7.8 4.2 2.3c1.5 1.6 3.4 3.6 7.1 3.6s5.6-2 7.1-3.6c1.4-1.5 2.3-2.3 4.2-2.3v-3.9c-3.7 0-5.6 2-7.1 3.6z"/></g></svg>